<?xml version="1.0" encoding="UTF-8" standalone="no"?>
<!DOCTYPE svg PUBLIC "-//W3C//DTD SVG 1.1//EN"
 "http://www.w3.org/Graphics/SVG/1.1/DTD/svg11.dtd">
<!-- Generated by graphviz version 2.40.1 (20161225.0304)
 -->
<!-- Title: dependencies Pages: 1 -->
<svg width="504pt" height="284pt"
 viewBox="0.00 0.00 504.00 284.00" xmlns="http://www.w3.org/2000/svg" xmlns:xlink="http://www.w3.org/1999/xlink">
<g id="graph0" class="graph" transform="scale(1 1) rotate(0) translate(4 280)">
<title>dependencies</title>
<polygon fill="#ffffff" stroke="transparent" points="-4,4 -4,-280 500,-280 500,4 -4,4"/>
<text text-anchor="start" x="227.0091" y="-42.4" font-family="sans-serif" font-weight="bold" font-size="14.00" fill="#000000">Legend</text>
<polygon fill="#ffffb3" stroke="transparent" points="14,-10 14,-30 34,-30 34,-10 14,-10"/>
<text text-anchor="start" x="37.629" y="-15.4" font-family="sans-serif" font-size="14.00" fill="#000000"> &#160;Declarations</text>
<polygon fill="#8dd3c7" stroke="transparent" points="127,-10 127,-30 147,-30 147,-10 127,-10"/>
<text text-anchor="start" x="150.7251" y="-15.4" font-family="sans-serif" font-size="14.00" fill="#000000"> &#160;Module</text>
<polygon fill="#80b1d3" stroke="transparent" points="213,-10 213,-30 233,-30 233,-10 213,-10"/>
<text text-anchor="start" x="236.7812" y="-15.4" font-family="sans-serif" font-size="14.00" fill="#000000"> &#160;Bootstrap</text>
<polygon fill="#fdb462" stroke="transparent" points="310,-10 310,-30 330,-30 330,-10 310,-10"/>
<text text-anchor="start" x="333.6732" y="-15.4" font-family="sans-serif" font-size="14.00" fill="#000000"> &#160;Providers</text>
<polygon fill="#fb8072" stroke="transparent" points="406,-10 406,-30 426,-30 426,-10 406,-10"/>
<text text-anchor="start" x="429.7258" y="-15.4" font-family="sans-serif" font-size="14.00" fill="#000000"> &#160;Exports</text>
<g id="clust1" class="cluster">
<title>cluster_CodeModule</title>
<polygon fill="none" stroke="#000000" stroke-dasharray="1,5" points="103,-70 103,-268 393,-268 393,-70 103,-70"/>
</g>
<g id="clust2" class="cluster">
<title>cluster_CodeModule_declarations</title>
<polygon fill="none" stroke="#000000" points="253,-78 253,-130 385,-130 385,-78 253,-78"/>
</g>
<g id="clust5" class="cluster">
<title>cluster_CodeModule_exports</title>
<polygon fill="none" stroke="#000000" points="180,-208 180,-260 316,-260 316,-208 180,-208"/>
</g>
<g id="clust7" class="cluster">
<title>cluster_CodeModule_providers</title>
<polygon fill="none" stroke="#000000" points="111,-78 111,-130 245,-130 245,-78 111,-78"/>
</g>
<!-- EditorComponent -->
<g id="node1" class="node">
<title>EditorComponent</title>
<polygon fill="#ffffb3" stroke="#000000" points="377.3273,-122 260.6727,-122 260.6727,-86 377.3273,-86 377.3273,-122"/>
<text text-anchor="middle" x="319" y="-99.8" font-family="Times,serif" font-size="14.00" fill="#000000">EditorComponent</text>
</g>
<!-- CodeModule -->
<g id="node2" class="node">
<title>CodeModule</title>
<polygon fill="#8dd3c7" stroke="#000000" points="292.6011,-187 289.6011,-191 268.6011,-191 265.6011,-187 203.3989,-187 203.3989,-151 292.6011,-151 292.6011,-187"/>
<text text-anchor="middle" x="248" y="-164.8" font-family="Times,serif" font-size="14.00" fill="#000000">CodeModule</text>
</g>
<!-- EditorComponent&#45;&gt;CodeModule -->
<g id="edge1" class="edge">
<title>EditorComponent&#45;&gt;CodeModule</title>
<path fill="none" stroke="#000000" d="M276.6936,-122.1061C276.6936,-122.1061 276.6936,-140.991 276.6936,-140.991"/>
<polygon fill="#000000" stroke="#000000" points="273.1936,-140.9909 276.6936,-150.991 280.1936,-140.991 273.1936,-140.9909"/>
</g>
<!-- EditorComponent  -->
<g id="node3" class="node">
<title>EditorComponent </title>
<polygon fill="#fb8072" stroke="#000000" points="307.8269,-252 188.1731,-252 188.1731,-216 307.8269,-216 307.8269,-252"/>
<text text-anchor="middle" x="248" y="-229.8" font-family="Times,serif" font-size="14.00" fill="#000000">EditorComponent </text>
</g>
<!-- CodeModule&#45;&gt;EditorComponent  -->
<g id="edge2" class="edge">
<title>CodeModule&#45;&gt;EditorComponent </title>
<path fill="none" stroke="#000000" stroke-dasharray="5,2" d="M248,-187.1061C248,-187.1061 248,-205.991 248,-205.991"/>
<polygon fill="#000000" stroke="#000000" points="244.5001,-205.9909 248,-215.991 251.5001,-205.991 244.5001,-205.9909"/>
</g>
<!-- CodeFacade -->
<g id="node4" class="node">
<title>CodeFacade</title>
<ellipse fill="#fdb462" stroke="#000000" cx="178" cy="-104" rx="58.529" ry="18"/>
<text text-anchor="middle" x="178" y="-99.8" font-family="Times,serif" font-size="14.00" fill="#000000">CodeFacade</text>
</g>
<!-- CodeFacade&#45;&gt;CodeModule -->
<g id="edge3" class="edge">
<title>CodeFacade&#45;&gt;CodeModule</title>
<path fill="none" stroke="#000000" d="M220.1068,-116.8419C220.1068,-116.8419 220.1068,-140.5231 220.1068,-140.5231"/>
<polygon fill="#000000" stroke="#000000" points="216.6069,-140.523 220.1068,-150.5231 223.6069,-140.5231 216.6069,-140.523"/>
</g>
</g>
</svg>
