<?xml version="1.0" encoding="UTF-8" standalone="no"?>
<!DOCTYPE svg PUBLIC "-//W3C//DTD SVG 1.1//EN"
 "http://www.w3.org/Graphics/SVG/1.1/DTD/svg11.dtd">
<!-- Generated by graphviz version 2.40.1 (20161225.0304)
 -->
<!-- Title: dependencies Pages: 1 -->
<svg width="653pt" height="284pt"
 viewBox="0.00 0.00 653.00 284.00" xmlns="http://www.w3.org/2000/svg" xmlns:xlink="http://www.w3.org/1999/xlink">
<g id="graph0" class="graph" transform="scale(1 1) rotate(0) translate(4 280)">
<title>dependencies</title>
<polygon fill="#ffffff" stroke="transparent" points="-4,4 -4,-280 649,-280 649,4 -4,4"/>
<text text-anchor="start" x="301.5091" y="-42.4" font-family="sans-serif" font-weight="bold" font-size="14.00" fill="#000000">Legend</text>
<polygon fill="#ffffb3" stroke="transparent" points="88.5,-10 88.5,-30 108.5,-30 108.5,-10 88.5,-10"/>
<text text-anchor="start" x="112.129" y="-15.4" font-family="sans-serif" font-size="14.00" fill="#000000"> &#160;Declarations</text>
<polygon fill="#8dd3c7" stroke="transparent" points="201.5,-10 201.5,-30 221.5,-30 221.5,-10 201.5,-10"/>
<text text-anchor="start" x="225.2251" y="-15.4" font-family="sans-serif" font-size="14.00" fill="#000000"> &#160;Module</text>
<polygon fill="#80b1d3" stroke="transparent" points="287.5,-10 287.5,-30 307.5,-30 307.5,-10 287.5,-10"/>
<text text-anchor="start" x="311.2812" y="-15.4" font-family="sans-serif" font-size="14.00" fill="#000000"> &#160;Bootstrap</text>
<polygon fill="#fdb462" stroke="transparent" points="384.5,-10 384.5,-30 404.5,-30 404.5,-10 384.5,-10"/>
<text text-anchor="start" x="408.1732" y="-15.4" font-family="sans-serif" font-size="14.00" fill="#000000"> &#160;Providers</text>
<polygon fill="#fb8072" stroke="transparent" points="480.5,-10 480.5,-30 500.5,-30 500.5,-10 480.5,-10"/>
<text text-anchor="start" x="504.2258" y="-15.4" font-family="sans-serif" font-size="14.00" fill="#000000"> &#160;Exports</text>
<g id="clust1" class="cluster">
<title>cluster_AppModule</title>
<polygon fill="none" stroke="#000000" stroke-dasharray="1,5" points="8,-70 8,-268 637,-268 637,-70 8,-70"/>
</g>
<g id="clust2" class="cluster">
<title>cluster_AppModule_declarations</title>
<polygon fill="none" stroke="#000000" points="507,-78 507,-130 629,-130 629,-78 507,-78"/>
</g>
<g id="clust4" class="cluster">
<title>cluster_AppModule_imports</title>
<polygon fill="none" stroke="#000000" points="284,-78 284,-130 499,-130 499,-78 284,-78"/>
</g>
<g id="clust6" class="cluster">
<title>cluster_AppModule_bootstrap</title>
<polygon fill="none" stroke="#000000" points="329,-208 329,-260 453,-260 453,-208 329,-208"/>
</g>
<g id="clust7" class="cluster">
<title>cluster_AppModule_providers</title>
<polygon fill="none" stroke="#000000" points="16,-78 16,-130 276,-130 276,-78 16,-78"/>
</g>
<!-- AppComponent -->
<g id="node1" class="node">
<title>AppComponent</title>
<polygon fill="#ffffb3" stroke="#000000" points="620.9399,-122 515.0601,-122 515.0601,-86 620.9399,-86 620.9399,-122"/>
<text text-anchor="middle" x="568" y="-99.8" font-family="Times,serif" font-size="14.00" fill="#000000">AppComponent</text>
</g>
<!-- AppModule -->
<g id="node2" class="node">
<title>AppModule</title>
<polygon fill="#8dd3c7" stroke="#000000" points="432.6571,-187 429.6571,-191 408.6571,-191 405.6571,-187 349.3429,-187 349.3429,-151 432.6571,-151 432.6571,-187"/>
<text text-anchor="middle" x="391" y="-164.8" font-family="Times,serif" font-size="14.00" fill="#000000">AppModule</text>
</g>
<!-- AppComponent&#45;&gt;AppModule -->
<g id="edge1" class="edge">
<title>AppComponent&#45;&gt;AppModule</title>
<path fill="none" stroke="#000000" d="M568,-122.1061C568,-141.3391 568,-169 568,-169 568,-169 442.9465,-169 442.9465,-169"/>
<polygon fill="#000000" stroke="#000000" points="442.9466,-165.5001 432.9465,-169 442.9465,-172.5001 442.9466,-165.5001"/>
</g>
<!-- AppComponent  -->
<g id="node5" class="node">
<title>AppComponent </title>
<polygon fill="#80b1d3" stroke="#000000" points="445.439,-252 336.561,-252 336.561,-216 445.439,-216 445.439,-252"/>
<text text-anchor="middle" x="391" y="-229.8" font-family="Times,serif" font-size="14.00" fill="#000000">AppComponent </text>
</g>
<!-- AppModule&#45;&gt;AppComponent  -->
<g id="edge4" class="edge">
<title>AppModule&#45;&gt;AppComponent </title>
<path fill="none" stroke="#000000" stroke-dasharray="1,5" d="M391,-187.1061C391,-187.1061 391,-205.991 391,-205.991"/>
<polygon fill="#000000" stroke="#000000" points="387.5001,-205.9909 391,-215.991 394.5001,-205.991 387.5001,-205.9909"/>
</g>
<!-- !environment -->
<g id="node3" class="node">
<title>!environment</title>
<polygon fill="#8dd3c7" stroke="#000000" points="490.9232,-122 487.9232,-126 466.9232,-126 463.9232,-122 399.0768,-122 399.0768,-86 490.9232,-86 490.9232,-122"/>
<text text-anchor="middle" x="445" y="-99.8" font-family="Times,serif" font-size="14.00" fill="#000000">!environment</text>
</g>
<!-- !environment&#45;&gt;AppModule -->
<g id="edge2" class="edge">
<title>!environment&#45;&gt;AppModule</title>
<path fill="none" stroke="#000000" d="M416.0585,-122.1061C416.0585,-122.1061 416.0585,-140.991 416.0585,-140.991"/>
<polygon fill="#000000" stroke="#000000" points="412.5586,-140.9909 416.0585,-150.991 419.5586,-140.991 412.5586,-140.9909"/>
</g>
<!-- CodeModule -->
<g id="node4" class="node">
<title>CodeModule</title>
<polygon fill="#8dd3c7" stroke="#000000" points="381.6011,-122 378.6011,-126 357.6011,-126 354.6011,-122 292.3989,-122 292.3989,-86 381.6011,-86 381.6011,-122"/>
<text text-anchor="middle" x="337" y="-99.8" font-family="Times,serif" font-size="14.00" fill="#000000">CodeModule</text>
</g>
<!-- CodeModule&#45;&gt;AppModule -->
<g id="edge3" class="edge">
<title>CodeModule&#45;&gt;AppModule</title>
<path fill="none" stroke="#000000" d="M365.3612,-122.1061C365.3612,-122.1061 365.3612,-140.991 365.3612,-140.991"/>
<polygon fill="#000000" stroke="#000000" points="361.8612,-140.9909 365.3612,-150.991 368.8612,-140.991 361.8612,-140.9909"/>
</g>
<!-- NestedForLoopsRootFacade -->
<g id="node6" class="node">
<title>NestedForLoopsRootFacade</title>
<ellipse fill="#fdb462" stroke="#000000" cx="146" cy="-104" rx="121.551" ry="18"/>
<text text-anchor="middle" x="146" y="-99.8" font-family="Times,serif" font-size="14.00" fill="#000000">NestedForLoopsRootFacade</text>
</g>
<!-- NestedForLoopsRootFacade&#45;&gt;AppModule -->
<g id="edge5" class="edge">
<title>NestedForLoopsRootFacade&#45;&gt;AppModule</title>
<path fill="none" stroke="#000000" d="M146,-122.1061C146,-141.3391 146,-169 146,-169 146,-169 339.1614,-169 339.1614,-169"/>
<polygon fill="#000000" stroke="#000000" points="339.1614,-172.5001 349.1614,-169 339.1613,-165.5001 339.1614,-172.5001"/>
</g>
</g>
</svg>
