<?xml version="1.0" encoding="UTF-8" standalone="no"?>
<!DOCTYPE svg PUBLIC "-//W3C//DTD SVG 1.1//EN"
 "http://www.w3.org/Graphics/SVG/1.1/DTD/svg11.dtd">
<!-- Generated by graphviz version 2.40.1 (20161225.0304)
 -->
<!-- Title: dependencies Pages: 1 -->
<svg width="653pt" height="360pt"
 viewBox="0.00 0.00 653.00 360.00" xmlns="http://www.w3.org/2000/svg" xmlns:xlink="http://www.w3.org/1999/xlink">
<g id="graph0" class="graph" transform="scale(1 1) rotate(0) translate(4 356)">
<title>dependencies</title>
<polygon fill="#ffffff" stroke="transparent" points="-4,4 -4,-356 649,-356 649,4 -4,4"/>
<text text-anchor="start" x="301.5091" y="-42.4" font-family="sans-serif" font-weight="bold" font-size="14.00" fill="#000000">Legend</text>
<polygon fill="#ffffb3" stroke="transparent" points="88.5,-10 88.5,-30 108.5,-30 108.5,-10 88.5,-10"/>
<text text-anchor="start" x="112.129" y="-15.4" font-family="sans-serif" font-size="14.00" fill="#000000"> &#160;Declarations</text>
<polygon fill="#8dd3c7" stroke="transparent" points="201.5,-10 201.5,-30 221.5,-30 221.5,-10 201.5,-10"/>
<text text-anchor="start" x="225.2251" y="-15.4" font-family="sans-serif" font-size="14.00" fill="#000000"> &#160;Module</text>
<polygon fill="#80b1d3" stroke="transparent" points="287.5,-10 287.5,-30 307.5,-30 307.5,-10 287.5,-10"/>
<text text-anchor="start" x="311.2812" y="-15.4" font-family="sans-serif" font-size="14.00" fill="#000000"> &#160;Bootstrap</text>
<polygon fill="#fdb462" stroke="transparent" points="384.5,-10 384.5,-30 404.5,-30 404.5,-10 384.5,-10"/>
<text text-anchor="start" x="408.1732" y="-15.4" font-family="sans-serif" font-size="14.00" fill="#000000"> &#160;Providers</text>
<polygon fill="#fb8072" stroke="transparent" points="480.5,-10 480.5,-30 500.5,-30 500.5,-10 480.5,-10"/>
<text text-anchor="start" x="504.2258" y="-15.4" font-family="sans-serif" font-size="14.00" fill="#000000"> &#160;Exports</text>
<g id="clust1" class="cluster">
<title>cluster_AppModule</title>
<polygon fill="none" stroke="#000000" stroke-dasharray="1,5" points="8,-146 8,-344 637,-344 637,-146 8,-146"/>
</g>
<g id="clust2" class="cluster">
<title>cluster_AppModule_declarations</title>
<polygon fill="none" stroke="#000000" points="507,-154 507,-206 629,-206 629,-154 507,-154"/>
</g>
<g id="clust4" class="cluster">
<title>cluster_AppModule_imports</title>
<polygon fill="none" stroke="#000000" points="284,-154 284,-206 499,-206 499,-154 284,-154"/>
</g>
<g id="clust6" class="cluster">
<title>cluster_AppModule_bootstrap</title>
<polygon fill="none" stroke="#000000" points="329,-284 329,-336 453,-336 453,-284 329,-284"/>
</g>
<g id="clust7" class="cluster">
<title>cluster_AppModule_providers</title>
<polygon fill="none" stroke="#000000" points="16,-154 16,-206 276,-206 276,-154 16,-154"/>
</g>
<g id="clust8" class="cluster">
<title>cluster_CodeModule</title>
<polygon fill="none" stroke="#000000" stroke-dasharray="1,5" points="119,-70 119,-138 553,-138 553,-70 119,-70"/>
</g>
<g id="clust9" class="cluster">
<title>cluster_CodeModule_declarations</title>
<polygon fill="none" stroke="#000000" points="413,-78 413,-130 545,-130 545,-78 413,-78"/>
</g>
<g id="clust12" class="cluster">
<title>cluster_CodeModule_exports</title>
<polygon fill="none" stroke="#000000" points="269,-78 269,-130 405,-130 405,-78 269,-78"/>
</g>
<g id="clust14" class="cluster">
<title>cluster_CodeModule_providers</title>
<polygon fill="none" stroke="#000000" points="127,-78 127,-130 261,-130 261,-78 127,-78"/>
</g>
<!-- AppComponent -->
<g id="node1" class="node">
<title>AppComponent</title>
<polygon fill="#ffffb3" stroke="#000000" points="620.9399,-198 515.0601,-198 515.0601,-162 620.9399,-162 620.9399,-198"/>
<text text-anchor="middle" x="568" y="-175.8" font-family="Times,serif" font-size="14.00" fill="#000000">AppComponent</text>
</g>
<!-- AppModule -->
<g id="node2" class="node">
<title>AppModule</title>
<polygon fill="#8dd3c7" stroke="#000000" points="432.6571,-263 429.6571,-267 408.6571,-267 405.6571,-263 349.3429,-263 349.3429,-227 432.6571,-227 432.6571,-263"/>
<text text-anchor="middle" x="391" y="-240.8" font-family="Times,serif" font-size="14.00" fill="#000000">AppModule</text>
</g>
<!-- AppComponent&#45;&gt;AppModule -->
<g id="edge1" class="edge">
<title>AppComponent&#45;&gt;AppModule</title>
<path fill="none" stroke="#000000" d="M568,-198.1061C568,-217.3391 568,-245 568,-245 568,-245 442.9465,-245 442.9465,-245"/>
<polygon fill="#000000" stroke="#000000" points="442.9466,-241.5001 432.9465,-245 442.9465,-248.5001 442.9466,-241.5001"/>
</g>
<!-- AppComponent  -->
<g id="node5" class="node">
<title>AppComponent </title>
<polygon fill="#80b1d3" stroke="#000000" points="445.439,-328 336.561,-328 336.561,-292 445.439,-292 445.439,-328"/>
<text text-anchor="middle" x="391" y="-305.8" font-family="Times,serif" font-size="14.00" fill="#000000">AppComponent </text>
</g>
<!-- AppModule&#45;&gt;AppComponent  -->
<g id="edge4" class="edge">
<title>AppModule&#45;&gt;AppComponent </title>
<path fill="none" stroke="#000000" stroke-dasharray="1,5" d="M391,-263.1061C391,-263.1061 391,-281.991 391,-281.991"/>
<polygon fill="#000000" stroke="#000000" points="387.5001,-281.9909 391,-291.991 394.5001,-281.991 387.5001,-281.9909"/>
</g>
<!-- !environment -->
<g id="node3" class="node">
<title>!environment</title>
<polygon fill="#8dd3c7" stroke="#000000" points="490.9232,-198 487.9232,-202 466.9232,-202 463.9232,-198 399.0768,-198 399.0768,-162 490.9232,-162 490.9232,-198"/>
<text text-anchor="middle" x="445" y="-175.8" font-family="Times,serif" font-size="14.00" fill="#000000">!environment</text>
</g>
<!-- !environment&#45;&gt;AppModule -->
<g id="edge2" class="edge">
<title>!environment&#45;&gt;AppModule</title>
<path fill="none" stroke="#000000" d="M416.0585,-198.1061C416.0585,-198.1061 416.0585,-216.991 416.0585,-216.991"/>
<polygon fill="#000000" stroke="#000000" points="412.5586,-216.9909 416.0585,-226.991 419.5586,-216.991 412.5586,-216.9909"/>
</g>
<!-- CodeModule -->
<g id="node4" class="node">
<title>CodeModule</title>
<polygon fill="#8dd3c7" stroke="#000000" points="381.6011,-198 378.6011,-202 357.6011,-202 354.6011,-198 292.3989,-198 292.3989,-162 381.6011,-162 381.6011,-198"/>
<text text-anchor="middle" x="337" y="-175.8" font-family="Times,serif" font-size="14.00" fill="#000000">CodeModule</text>
</g>
<!-- CodeModule&#45;&gt;AppModule -->
<g id="edge3" class="edge">
<title>CodeModule&#45;&gt;AppModule</title>
<path fill="none" stroke="#000000" d="M365.3612,-198.1061C365.3612,-198.1061 365.3612,-216.991 365.3612,-216.991"/>
<polygon fill="#000000" stroke="#000000" points="361.8612,-216.9909 365.3612,-226.991 368.8612,-216.991 361.8612,-216.9909"/>
</g>
<!-- EditorComponent  -->
<g id="node8" class="node">
<title>EditorComponent </title>
<polygon fill="#fb8072" stroke="#000000" points="396.8269,-122 277.1731,-122 277.1731,-86 396.8269,-86 396.8269,-122"/>
<text text-anchor="middle" x="337" y="-99.8" font-family="Times,serif" font-size="14.00" fill="#000000">EditorComponent </text>
</g>
<!-- CodeModule&#45;&gt;EditorComponent  -->
<g id="edge7" class="edge">
<title>CodeModule&#45;&gt;EditorComponent </title>
<path fill="none" stroke="#000000" stroke-dasharray="5,2" d="M322.1498,-161.9891C322.1498,-161.9891 322.1498,-132.145 322.1498,-132.145"/>
<polygon fill="#000000" stroke="#000000" points="325.6499,-132.145 322.1498,-122.145 318.6499,-132.1451 325.6499,-132.145"/>
</g>
<!-- NestedForLoopsRootFacade -->
<g id="node6" class="node">
<title>NestedForLoopsRootFacade</title>
<ellipse fill="#fdb462" stroke="#000000" cx="146" cy="-180" rx="121.551" ry="18"/>
<text text-anchor="middle" x="146" y="-175.8" font-family="Times,serif" font-size="14.00" fill="#000000">NestedForLoopsRootFacade</text>
</g>
<!-- NestedForLoopsRootFacade&#45;&gt;AppModule -->
<g id="edge5" class="edge">
<title>NestedForLoopsRootFacade&#45;&gt;AppModule</title>
<path fill="none" stroke="#000000" d="M146,-198.1061C146,-217.3391 146,-245 146,-245 146,-245 339.1614,-245 339.1614,-245"/>
<polygon fill="#000000" stroke="#000000" points="339.1614,-248.5001 349.1614,-245 339.1613,-241.5001 339.1614,-248.5001"/>
</g>
<!-- EditorComponent -->
<g id="node7" class="node">
<title>EditorComponent</title>
<polygon fill="#ffffb3" stroke="#000000" points="537.3273,-122 420.6727,-122 420.6727,-86 537.3273,-86 537.3273,-122"/>
<text text-anchor="middle" x="479" y="-99.8" font-family="Times,serif" font-size="14.00" fill="#000000">EditorComponent</text>
</g>
<!-- EditorComponent&#45;&gt;CodeModule -->
<g id="edge6" class="edge">
<title>EditorComponent&#45;&gt;CodeModule</title>
<path fill="none" stroke="#000000" d="M455.7739,-122.1097C455.7739,-131.897 455.7739,-142 455.7739,-142 455.7739,-142 351.8502,-142 351.8502,-142 351.8502,-142 351.8502,-151.8903 351.8502,-151.8903"/>
<polygon fill="#000000" stroke="#000000" points="348.3503,-151.8903 351.8502,-161.8903 355.3503,-151.8904 348.3503,-151.8903"/>
</g>
<!-- CodeFacade -->
<g id="node9" class="node">
<title>CodeFacade</title>
<ellipse fill="#fdb462" stroke="#000000" cx="194" cy="-104" rx="58.529" ry="18"/>
<text text-anchor="middle" x="194" y="-99.8" font-family="Times,serif" font-size="14.00" fill="#000000">CodeFacade</text>
</g>
<!-- CodeFacade&#45;&gt;CodeModule -->
<g id="edge8" class="edge">
<title>CodeFacade&#45;&gt;CodeModule</title>
<path fill="none" stroke="#000000" d="M252.9495,-104C264.0747,-104 272.306,-104 272.306,-104 272.306,-104 272.306,-180 272.306,-180 272.306,-180 282.421,-180 282.421,-180"/>
<polygon fill="#000000" stroke="#000000" points="282.421,-183.5001 292.421,-180 282.4209,-176.5001 282.421,-183.5001"/>
</g>
</g>
</svg>
